<?xml version="1.0" encoding="UTF-8"?>
<!DOCTYPE svg  PUBLIC '-//W3C//DTD SVG 1.1//EN'  'http://www.w3.org/Graphics/SVG/1.1/DTD/svg11.dtd'>
<svg width="711px" height="520px" style="background-color:rgb(255, 255, 255)" version="1.1" viewBox="-.5 -.5 711 520" xmlns="http://www.w3.org/2000/svg">
<ellipse cx="430" cy="80" rx="40" ry="40" fill="#fff" pointer-events="all" stroke="#000" stroke-width="2"/>
<g font-family="Helvetica" font-size="30px" text-anchor="middle">
<text x="429.5" y="92.5">3</text>
</g>
<path d="M 298.28 131.72 L 390 80" fill="none" pointer-events="stroke" stroke="#000" stroke-miterlimit="10" stroke-width="2"/>
<ellipse cx="270" cy="160" rx="40" ry="40" fill="#fff" pointer-events="all" stroke="#000" stroke-width="2"/>
<g font-family="Helvetica" font-size="30px" text-anchor="middle">
<text x="269.5" y="172.5">17</text>
</g>
<path d="M 561.72 131.72 L 470 80" fill="none" pointer-events="stroke" stroke="#000" stroke-miterlimit="10" stroke-width="2"/>
<ellipse cx="590" cy="160" rx="40" ry="40" fill="#fff" pointer-events="all" stroke="#000" stroke-width="2"/>
<g font-family="Helvetica" font-size="30px" text-anchor="middle">
<text x="589.5" y="172.5">7</text>
</g>
<path d="m190 251.72 51.72-63.44" fill="none" pointer-events="stroke" stroke="#000" stroke-miterlimit="10" stroke-width="2"/>
<path d="m130 292h-20v-132h20" fill="none" pointer-events="stroke" stroke="#900" stroke-miterlimit="10" stroke-width="2"/>
<ellipse cx="190" cy="291.72" rx="40" ry="40" fill="#fff" pointer-events="all" stroke="#000" stroke-width="2"/>
<g font-family="Helvetica" font-size="30px" text-anchor="middle">
<text x="189.5" y="304.22">26</text>
</g>
<path d="m350 251.72-51.72-63.44" fill="none" pointer-events="stroke" stroke="#000" stroke-miterlimit="10" stroke-width="2"/>
<ellipse cx="350" cy="291.72" rx="40" ry="40" fill="#fff" pointer-events="all" stroke="#000" stroke-width="2"/>
<g font-family="Helvetica" font-size="30px" text-anchor="middle">
<text x="349.5" y="304.22">92</text>
</g>
<path d="m510 251.72 51.72-63.44" fill="none" pointer-events="stroke" stroke="#000" stroke-miterlimit="10" stroke-width="2"/>
<ellipse cx="510" cy="291.72" rx="40" ry="40" fill="#fff" pointer-events="all" stroke="#000" stroke-width="2"/>
<g font-family="Helvetica" font-size="30px" text-anchor="middle">
<text x="509.5" y="304.22">38</text>
</g>
<path d="m670 251.72-51.72-63.44" fill="none" pointer-events="stroke" stroke="#000" stroke-miterlimit="10" stroke-width="2"/>
<ellipse cx="670" cy="291.72" rx="40" ry="40" fill="#fff" pointer-events="all" stroke="#000" stroke-width="2"/>
<g font-family="Helvetica" font-size="30px" text-anchor="middle">
<text x="669.5" y="304.22">8</text>
</g>
<path d="m110 380 51.72-60" fill="none" pointer-events="stroke" stroke="#000" stroke-miterlimit="10" stroke-width="2"/>
<ellipse cx="110" cy="420" rx="40" ry="40" fill="#fff" pointer-events="all" stroke="#000" stroke-width="2"/>
<g font-family="Helvetica" font-size="30px" text-anchor="middle">
<text x="109.5" y="432.5">87</text>
</g>
<path d="m270 380-51.72-60" fill="none" pointer-events="stroke" stroke="#000" stroke-miterlimit="10" stroke-width="2"/>
<ellipse cx="270" cy="420" rx="40" ry="40" fill="#fff" pointer-events="all" stroke="#000" stroke-width="2"/>
<g font-family="Helvetica" font-size="30px" text-anchor="middle">
<text x="269.5" y="432.5">57</text>
</g>
<rect x="440" width="140" height="60" fill="none" pointer-events="all"/>
<g fill="#900" font-family="Helvetica" font-size="24px" text-anchor="middle">
<text x="509.5" y="39.5">root node</text>
</g>
<rect x="130" y="460" width="120" height="60" fill="none" pointer-events="all"/>
<g fill="#900" font-family="Helvetica" font-size="24px" text-anchor="middle">
<text x="189.5" y="499.5">siblings</text>
</g>
<path d="m110 480.28v27.99h160v-27.99" fill="none" pointer-events="stroke" stroke="#900" stroke-miterlimit="10" stroke-width="2"/>
<path d="m350 352v28h160v-28" fill="none" pointer-events="stroke" stroke="#900" stroke-miterlimit="10" stroke-width="2"/>
<rect x="370" y="331.72" width="120" height="60" fill="none" pointer-events="all"/>
<g fill="#900" font-family="Helvetica" font-size="24px" text-anchor="middle">
<text x="429.5" y="371.22">cousins</text>
</g>
<rect y="120" width="120" height="60" fill="none" pointer-events="all"/>
<g fill="#900" font-family="Helvetica" font-size="24px" text-anchor="middle">
<text x="59.5" y="159.5">parent</text>
</g>
<rect y="251.72" width="100" height="60" fill="none" pointer-events="all"/>
<g fill="#900" font-family="Helvetica" font-size="24px" text-anchor="middle">
<text x="49.5" y="291.22">child</text>
</g>
</svg>
